<?xml version="1.0" encoding="UTF-8"?>
<svg version="1.1" xmlns="http://www.w3.org/2000/svg" width="512" height="512">
<path d="M0 0 C17.457433 11.39084705 30.87272512 33.94072031 36.6640625 53.73828125 C37.0055835 54.77686279 37.34710449 55.81544434 37.69897461 56.88549805 C38.71974096 60.96055844 38.90306921 64.67725915 38.82421875 68.83984375 C38.8164164 69.97732559 38.8164164 69.97732559 38.80845642 71.13778687 C38.79078925 73.54648858 38.75971191 75.95474692 38.7265625 78.36328125 C38.61646967 87.76616592 38.57904183 97.03756363 39.4128418 106.41357422 C40.80040526 124.77687769 41.95937813 144.54772367 34.6640625 161.73828125 C34.24125 162.90101563 33.8184375 164.06375 33.3828125 165.26171875 C22.58859578 194.19272984 7.0297898 220.79407529 -12.3359375 244.73828125 C-13.36847656 246.06859375 -13.36847656 246.06859375 -14.421875 247.42578125 C-16.19417625 249.56701052 -17.96966839 251.32057395 -20.0859375 253.11328125 C-20.69953125 253.63664062 -21.313125 254.16 -21.9453125 254.69921875 C-22.73421875 255.37210937 -23.523125 256.045 -24.3359375 256.73828125 C-24.90111084 257.26172119 -25.46628418 257.78516113 -26.04858398 258.32446289 C-30.97247214 262.81922458 -36.07922218 266.1980441 -41.8984375 269.42578125 C-42.70990234 269.88533203 -43.52136719 270.34488281 -44.35742188 270.81835938 C-45.93809524 271.71267094 -47.52085879 272.60330093 -49.10595703 273.48974609 C-52.19438379 275.21891343 -55.26505075 276.97818911 -58.3359375 278.73828125 C-58.39438946 282.11320754 -58.42968492 285.48800212 -58.4609375 288.86328125 C-58.47769531 289.81460937 -58.49445313 290.7659375 -58.51171875 291.74609375 C-58.59965179 304.40845184 -52.82665381 312.36661788 -44.0859375 321.23828125 C-39.72939578 325.48680954 -36.28318746 328.51637738 -30.09375 329.078125 C-25.76934118 328.54523043 -22.26964511 326.46078447 -18.48632812 324.43579102 C-10.90027301 320.37635329 -4.70119788 319.58753787 3.8515625 319.42578125 C4.52944824 319.40781494 5.20733398 319.38984863 5.90576172 319.37133789 C10.562286 319.37991239 13.713293 320.29620085 17.6640625 322.73828125 C20.63213842 326.39890822 20.98826322 329.09140422 20.6640625 333.73828125 C18.308813 333.33220375 16.99194947 333.09739556 15.3515625 331.30078125 C12.58122257 328.73565169 10.39504984 328.27127944 6.6640625 327.73828125 C3.12854563 328.67307818 -0.142672 329.95201013 -3.3359375 331.73828125 C-3.6659375 332.39828125 -3.9959375 333.05828125 -4.3359375 333.73828125 C-2.74265625 334.17527344 -2.74265625 334.17527344 -1.1171875 334.62109375 C6.79879602 336.8813326 13.58710946 338.92554356 19.6640625 344.73828125 C20.25960938 345.269375 20.85515625 345.80046875 21.46875 346.34765625 C23.1640625 347.92578125 23.1640625 347.92578125 25.6640625 350.73828125 C25.6640625 351.72828125 25.6640625 352.71828125 25.6640625 353.73828125 C21.11007419 353.28288242 17.81760925 351.96839334 13.88671875 349.7734375 C7.94970942 347.008398 2.34703885 346.38189823 -4.0859375 346.42578125 C-4.87145996 346.42707031 -5.65698242 346.42835938 -6.46630859 346.4296875 C-12.74712092 346.53288425 -18.42264093 347.55010102 -24.3359375 349.73828125 C-23.72105469 350.1971875 -23.10617187 350.65609375 -22.47265625 351.12890625 C-21.66441406 351.7425 -20.85617187 352.35609375 -20.0234375 352.98828125 C-19.22292969 353.5915625 -18.42242187 354.19484375 -17.59765625 354.81640625 C-15.41292521 356.67286164 -13.78523495 358.26507742 -12.3359375 360.73828125 C-12.6659375 361.72828125 -12.9959375 362.71828125 -13.3359375 363.73828125 C-18.49240602 362.08851826 -23.38259438 360.03291228 -28.3359375 357.859375 C-36.74184637 354.71810437 -45.05275328 355.43067067 -53.6484375 357.17578125 C-54.35033203 357.31048828 -55.05222656 357.44519531 -55.77539062 357.58398438 C-58.70448269 358.15639989 -61.50154194 358.79348273 -64.3359375 359.73828125 C-73.2810003 360.42034229 -81.43117439 359.74548874 -90.1484375 357.73828125 C-100.84377742 355.29335771 -109.48881861 353.94894492 -119.3359375 359.73828125 C-121.69461218 361.33486395 -124.01679628 362.95175061 -126.29296875 364.6640625 C-128.3359375 365.73828125 -128.3359375 365.73828125 -130.59765625 365.40625 C-131.17128906 365.18582031 -131.74492187 364.96539062 -132.3359375 364.73828125 C-131.52822302 358.45359873 -127.92820399 354.86683354 -123.3359375 350.73828125 C-116.53537731 346.48542355 -110.64671358 344.57869667 -102.6484375 344.67578125 C-101.94654297 344.68029297 -101.24464844 344.68480469 -100.52148438 344.68945312 C-98.79293212 344.70121198 -97.06442385 344.71914671 -95.3359375 344.73828125 C-99.48233565 339.61182536 -104.02451976 335.0951224 -108.8984375 330.67578125 C-121.51118986 319.18344651 -121.51118986 319.18344651 -122.3359375 312.73828125 C-122.35131417 310.38772453 -122.30480105 308.03638506 -122.21484375 305.6875 C-122.19123276 305.02869339 -122.16762177 304.36988678 -122.14329529 303.69111633 C-122.06718077 301.60242303 -121.98293521 299.51415051 -121.8984375 297.42578125 C-121.84516437 296.00327528 -121.79242439 294.58074924 -121.74023438 293.15820312 C-121.61163756 289.68464216 -121.47575039 286.21141091 -121.3359375 282.73828125 C-140.03689162 277.59672803 -155.50031296 274.63800807 -174.41259766 279.64038086 C-180.84773903 281.23188459 -187.0870393 282.03884089 -193.6796875 282.48046875 C-219.71715188 284.35753072 -239.10470101 291.22233717 -261.73022461 304.13793945 C-267.32300729 307.32314573 -273.02267441 310.29736931 -278.72874451 313.27323914 C-282.54342603 315.26423669 -286.34148532 317.27855947 -290.1159668 319.3449707 C-300.69893664 325.12676955 -311.65287072 329.1333564 -323.0859375 332.86328125 C-323.8312674 333.10956268 -324.57659729 333.35584412 -325.34451294 333.60958862 C-327.49863857 334.31595325 -329.65782813 335.00329868 -331.8203125 335.68359375 C-333.07553711 336.08078613 -334.33076172 336.47797852 -335.62402344 336.88720703 C-339.76800892 337.83734735 -343.10261614 337.96323758 -347.3359375 337.73828125 C-348.3359375 336.73828125 -348.3359375 336.73828125 -348.5859375 334.48828125 C-348.28871376 331.21882009 -347.17359531 329.41819889 -345.3359375 326.73828125 C-346.0990625 326.90328125 -346.8621875 327.06828125 -347.6484375 327.23828125 C-352.51676256 327.89839312 -357.43506327 328.21075115 -362.3359375 327.73828125 C-364.3359375 325.73828125 -364.3359375 325.73828125 -364.7734375 322.92578125 C-364.06656659 317.7757218 -360.11713514 315.27334508 -356.1640625 312.23046875 C-354.97567459 311.35219668 -353.78272966 310.48006623 -352.5859375 309.61328125 C-351.94269531 309.14390137 -351.29945313 308.67452148 -350.63671875 308.19091797 C-344.96696588 304.10047966 -339.13807933 300.27519317 -333.23535156 296.53076172 C-328.82766676 293.7336998 -324.55968322 290.8070965 -320.3359375 287.73828125 C-321.53476562 287.97998047 -321.53476562 287.97998047 -322.7578125 288.2265625 C-327.06207713 288.84212873 -331.2445457 288.92228013 -335.5859375 288.92578125 C-336.400625 288.93802734 -337.2153125 288.95027344 -338.0546875 288.96289062 C-340.14976924 288.96809364 -342.24445746 288.86118695 -344.3359375 288.73828125 C-344.9959375 288.07828125 -345.6559375 287.41828125 -346.3359375 286.73828125 C-345.86898037 278.33305298 -337.87928105 271.35124293 -332.3359375 265.73828125 C-329.12475183 262.89467168 -325.78431727 260.28708369 -322.3359375 257.73828125 C-321.56765625 257.1659375 -320.799375 256.59359375 -320.0078125 256.00390625 C-310.32564551 249.01479233 -300.00420262 243.06763852 -289.3984375 237.61328125 C-273.36723041 229.32114829 -258.25961343 219.19278949 -243.328125 209.07958984 C-241.04689048 207.54367042 -238.75466169 206.02501548 -236.4609375 204.5078125 C-225.08552796 196.97749253 -213.8456725 189.27864692 -202.70410156 181.40673828 C-200.40749907 179.78869896 -198.10355979 178.18174834 -195.796875 176.578125 C-183.85314795 168.25596696 -172.2998473 159.68116648 -161.6628418 149.72241211 C-158.48644534 146.75583267 -155.22273215 143.96128353 -151.8359375 141.23828125 C-147.85961601 138.03894212 -144.06950216 134.71218747 -140.3359375 131.23828125 C-135.77576864 127.00029029 -131.07636649 122.99976345 -126.22265625 119.1015625 C-124.16784195 117.4193397 -122.15903295 115.72273977 -120.16796875 113.96875 C-108.42021342 103.63113703 -95.75412474 94.73090637 -82.8359375 85.92578125 C-67.83204339 76.52962409 -67.83204339 76.52962409 -57.58203125 62.7734375 C-56.42465435 56.62106557 -58.45289906 51.13046963 -61.41796875 45.7890625 C-69.95403254 33.9004661 -94.9560857 30.55727944 -108.44824219 28.19287109 C-110.29338319 27.89555415 -112.14103419 27.61302781 -113.99169922 27.35229492 C-116.66966178 26.65087065 -118.24307788 25.51899475 -120.3359375 23.73828125 C-120.3359375 20.62001436 -120.02539809 18.49042007 -117.875 16.14453125 C-106.95750909 7.41053852 -93.2303171 5.9699378 -79.70092773 5.45336914 C-72.6152151 5.16839607 -67.39430014 4.54315947 -61.3359375 0.73828125 C-58.96892742 -0.49047949 -56.59727047 -1.69710566 -54.2109375 -2.88671875 C-53.05335938 -3.47710937 -51.89578125 -4.0675 -50.703125 -4.67578125 C-35.06854998 -12.03962981 -14.79082736 -8.2103353 0 0 Z M-91.4609375 293.23828125 C-92.55664062 293.70234375 -93.65234375 294.16640625 -94.78125 294.64453125 C-95.62429688 295.00546875 -96.46734375 295.36640625 -97.3359375 295.73828125 C-97.82355101 307.4229457 -97.41499931 314.61098012 -89.4609375 323.48828125 C-86.14123403 326.96026469 -82.73816736 330.34727987 -79.3359375 333.73828125 C-78.88387939 334.28492432 -78.43182129 334.83156738 -77.96606445 335.39477539 C-76.41812991 336.9334513 -76.41812991 336.9334513 -74.2512207 336.89526367 C-73.47093506 336.79576416 -72.69064941 336.69626465 -71.88671875 336.59375 C-71.03916016 336.49384766 -70.19160156 336.39394531 -69.31835938 336.29101562 C-68.43728516 336.17048828 -67.55621094 336.04996094 -66.6484375 335.92578125 C-65.75576172 335.81685547 -64.86308594 335.70792969 -63.94335938 335.59570312 C-61.7386134 335.32453116 -59.53692237 335.03822839 -57.3359375 334.73828125 C-58.67798583 331.71220653 -60.12205881 329.75235368 -62.56640625 327.53125 C-63.20513672 326.94408203 -63.84386719 326.35691406 -64.50195312 325.75195312 C-65.50258789 324.84799805 -65.50258789 324.84799805 -66.5234375 323.92578125 C-82.38655274 309.45167511 -82.38655274 309.45167511 -82.8984375 299.11328125 C-82.96321289 297.91058594 -82.96321289 297.91058594 -83.02929688 296.68359375 C-83.13545207 294.70203015 -83.23620605 292.72017854 -83.3359375 290.73828125 C-86.36118983 290.73828125 -88.69172902 292.05989466 -91.4609375 293.23828125 Z " fill="#000000" transform="translate(418.3359375,77.26171875)"/>
</svg>
